<?xml version="1.0" encoding="UTF-8"?><svg id="b" xmlns="http://www.w3.org/2000/svg" viewBox="0 0 146.64 48.85"><g id="c"><g id="d"><path d="M146.14,0L8.42,10.48c-.28.02-.5.22-.56.49L.73,45.01,0,48.47c-.05.26.22.46.45.34l7.34-3.87c.26-.14.55-.22.85-.23l125.43-4.59c.26,0,.49-.19.57-.44L146.62.6c.1-.31-.15-.63-.48-.6Z" fill="#d9e021"/><path d="M11.46,14.29l10.44-.79-2.84,15.65-1.04,5.15.83-.02,1.04-5.15,3.65-15.75,10.22-.78-5.56,27.41-5.97.22,3.81-17.81.45-2.34-.83.03-.45,2.33-4.47,17.83-7.38.27,2.84-17.52.45-2.3-.83.03-.45,2.3-3.5,17.54-5.97.22,5.56-26.53Z" fill="#0a0a0a"/><path d="M37.94,12.28l9.03-.69-2.98,27.84-6.3.23,1.01-6.11-1.42.06-1.45,6.11-6.01.22,8.13-27.67ZM38.31,28.48l1.39-.06,1.27-7.72.48-2.39-.83.04-.48,2.39-1.83,7.75Z" fill="#0a0a0a"/><path d="M46.75,33.59l1.68-.08c.56-.03,1.01-.44,1.12-1.04l4.21-21.4,5.97-.45-4.29,21.98c-.78,3.88-3.88,6.56-7.8,6.7l-2.05.08,1.16-5.79Z" fill="#0a0a0a"/><path d="M57.23,33l3.21-16.46c.78-3.93,3.88-6.76,7.8-7.06s6.04,2.17,5.26,6.17l-3.21,16.76c-.75,3.96-3.88,6.69-7.8,6.83s-6.01-2.35-5.26-6.24ZM64.31,32.68l3.21-16.62c.07-.37-.11-.6-.45-.58s-.6.29-.67.66l-3.21,16.59c-.07.37.11.6.45.59s.6-.27.67-.64Z" fill="#0a0a0a"/><path d="M76.66,9.33l7.09-.54c3.58-.27,5.48,2.02,4.81,5.72l-1.31,7c-.3,1.61-1.04,3.03-2.09,4.09l-.48,12.34-5.97.22.9-10.39-.57.02-1.98,10.43-5.97.22,5.56-29.11ZM81.47,14.99l-1.34,7.14.56-.03c.34-.02.6-.28.67-.66l1.12-5.89c.07-.38-.11-.62-.45-.59l-.56.04Z" fill="#0a0a0a"/><path d="M91.73,8.19l5.97-.45-5.56,29.94-5.97.22,5.56-29.71Z" fill="#0a0a0a"/><path d="M100.53,13.7l-2.24.15,1.16-6.25,10.44-.79-1.16,6.34-2.24.15-4.4,24.02-5.97.22,4.4-23.83Z" fill="#0a0a0a"/><path d="M111.46,27.1l-.22-20.4,6.27-.48-1.2,9.01-.71,3.96.83-.03.71-3.96,2.08-9.1,5.97-.45-7.72,21.08-1.83,10.09-5.97.22,1.79-9.93Z" fill="#0a0a0a"/></g></g></svg>