<?xml version="1.0" encoding="UTF-8"?><svg id="a" xmlns="http://www.w3.org/2000/svg" viewBox="0 0 300 99.94"><path d="M270.23,9.64L42.84,26.95c-.46.03-.83.37-.93.81l-11.77,56.2-1.2,5.72c-.09.43.36.76.74.56l12.12-6.38c.43-.23.91-.36,1.4-.37l207.1-7.57c.44-.02.82-.31.94-.73l19.77-64.55c.16-.52-.25-1.03-.79-.99Z" fill="#0a0a0a"/><path d="M47.87,33.24l17.24-1.31-4.69,25.85-1.72,8.5,1.38-.04,1.72-8.5,6.03-26.01,16.87-1.28-9.18,45.27-9.85.36,6.29-29.41.74-3.86-1.38.06-.74,3.85-7.38,29.44-12.19.45,4.69-28.93.74-3.8-1.38.06-.74,3.8-5.78,28.96-9.85.36,9.18-43.81Z" fill="#fff"/><path d="M91.59,29.91l14.9-1.13-4.93,45.97-10.41.38,1.66-10.08-2.34.11-2.4,10.09-9.92.36,13.43-45.69ZM92.2,56.67l2.3-.09,2.09-12.75.8-3.94-1.38.06-.8,3.94-3.02,12.79Z" fill="#fff"/><path d="M106.12,65.1l2.77-.12c.92-.04,1.66-.73,1.85-1.72l6.96-35.33,9.85-.75-7.08,36.29c-1.29,6.41-6.41,10.83-12.87,11.06l-3.39.12,1.91-9.55Z" fill="#fff"/><path d="M123.43,64.13l5.3-27.17c1.29-6.5,6.4-11.16,12.87-11.66s9.98,3.58,8.68,10.2l-5.3,27.67c-1.23,6.54-6.41,11.04-12.87,11.28-6.47.23-9.92-3.89-8.68-10.31ZM135.13,63.6l5.3-27.44c.12-.61-.18-1-.74-.96s-.99.47-1.11,1.08l-5.3,27.4c-.12.61.18,1,.74.97s.99-.45,1.11-1.05Z" fill="#fff"/><path d="M155.51,25.05l11.7-.89c5.91-.45,9.05,3.33,7.94,9.44l-2.16,11.56c-.49,2.66-1.72,5.01-3.45,6.76l-.8,20.38-9.85.36,1.49-17.16-.93.03-3.26,17.22-9.85.36,9.18-48.07ZM163.46,34.4l-2.22,11.8.92-.05c.55-.03.99-.47,1.11-1.09l1.85-9.73c.12-.63-.18-1.02-.74-.98l-.92.06Z" fill="#fff"/><path d="M180.39,23.15l9.85-.75-9.18,49.44-9.85.36,9.18-49.05Z" fill="#fff"/><path d="M194.93,32.26l-3.7.25,1.91-10.32,17.24-1.31-1.91,10.47-3.7.25-7.27,39.65-9.85.36,7.27-39.34Z" fill="#fff"/><path d="M212.97,54.39l-.37-33.69,10.35-.79-1.98,14.87-1.17,6.54,1.38-.05,1.17-6.54,3.44-15.03,9.85-.75-12.75,34.81-3.02,16.67-9.85.36,2.96-16.39Z" fill="#fff"/></svg>