<?xml version="1.0" encoding="UTF-8"?><svg id="b" xmlns="http://www.w3.org/2000/svg" viewBox="0 0 63.05 63.05"><g id="c"><g id="d"><rect y="0" width="63.05" height="63.05" rx="1.5" ry="1.5" fill="#d9e021"/><path d="M48.15,6.64L14.79,10.91c-.22.03-.38.21-.38.43v44.64c0,.34.37.55.66.38l7.82-4.58c1.46-.85,3.11-1.35,4.8-1.43l20.54-1.06c.23-.01.41-.2.41-.44V7.07c0-.26-.23-.47-.49-.43Z" fill="#0a0a0a"/><path d="M19.75,16.96l11.03-1.41.59,16.43v5.45l1.3-.04v-5.46l-.16-16.61,10.79-1.38v29.37l-6.3.32v-21.46l-.55.06v2.47l-1.02,19.01-7.8.4-1.02-18.41v-2.41l-.55.06v20.84l-6.3.32v-27.57Z" fill="#fff"/></g></g></svg>