<?xml version="1.0" encoding="UTF-8"?><svg id="b" xmlns="http://www.w3.org/2000/svg" viewBox="0 0 190.25 56.13"><g id="c"><g id="d"><path d="M8.86,13.8l16.66-1.27-4.53,24.97-1.67,8.21,1.33-.04,1.67-8.22,5.82-25.12,16.3-1.24-8.86,43.73-9.52.35,6.08-28.41.71-3.72-1.33.05-.71,3.72-7.13,28.44-11.78.43,4.53-27.94.71-3.67-1.33.05-.71,3.67-5.58,27.98-9.52.35L8.86,13.8Z" fill="#0a0a0a"/><path d="M51.1,10.59l14.4-1.1-4.76,44.41-10.05.37,1.61-9.74-2.26.1-2.32,9.74-9.58.35,12.97-44.14ZM51.69,36.43l2.22-.09,2.02-12.32.77-3.81-1.33.06-.77,3.81-2.92,12.36Z" fill="#0a0a0a"/><path d="M65.14,44.58l2.68-.12c.89-.04,1.61-.71,1.78-1.67l6.72-34.13,9.52-.72-6.84,35.06c-1.25,6.19-6.19,10.46-12.43,10.69l-3.27.12,1.84-9.23Z" fill="#0a0a0a"/><path d="M81.86,43.64l5.12-26.25c1.25-6.27,6.19-10.78,12.43-11.26s9.64,3.46,8.39,9.85l-5.12,26.73c-1.19,6.32-6.19,10.67-12.43,10.89s-9.58-3.76-8.39-9.96ZM93.16,43.13l5.12-26.51c.12-.59-.18-.96-.71-.93s-.95.45-1.07,1.05l-5.12,26.47c-.12.59.18.96.71.94s.95-.43,1.07-1.02Z" fill="#0a0a0a"/><path d="M112.86,5.89l11.3-.86c5.71-.43,8.75,3.22,7.67,9.12l-2.08,11.17c-.48,2.57-1.67,4.84-3.33,6.53l-.77,19.69-9.52.35,1.44-16.57-.9.03-3.15,16.64-9.52.35,8.86-46.43ZM120.53,14.92l-2.14,11.4.89-.05c.54-.03.95-.45,1.07-1.06l1.78-9.4c.12-.61-.18-.98-.71-.95l-.89.06Z" fill="#0a0a0a"/><path d="M136.89,4.06l9.52-.72-8.86,47.76-9.52.35,8.86-47.38Z" fill="#0a0a0a"/><path d="M150.93,12.86l-3.57.24,1.84-9.97,16.66-1.27-1.84,10.11-3.57.24-7.02,38.31-9.52.35,7.02-38.01Z" fill="#0a0a0a"/><path d="M168.36,34.24l-.36-32.54,10-.76-1.91,14.37-1.13,6.32,1.33-.05,1.13-6.32,3.32-14.52,9.52-.72-12.32,33.62-2.92,16.1-9.52.35,2.86-15.84Z" fill="#0a0a0a"/></g></g></svg>