<?xml version="1.0" encoding="UTF-8"?><svg id="b" xmlns="http://www.w3.org/2000/svg" viewBox="0 0 34.23 49.78"><g id="c"><g id="d"><path d="M33.74,0L.38,4.27c-.22.03-.38.21-.38.43v44.64c0,.34.37.55.66.38l7.82-4.58c1.46-.85,3.11-1.35,4.8-1.43l20.54-1.06c.23-.01.41-.2.41-.44V.44c0-.26-.23-.47-.49-.43Z" fill="#0a0a0a"/><path d="M5.34,10.32l11.03-1.41.59,16.43v5.45l1.3-.04v-5.46l-.16-16.61,10.79-1.38v29.37l-6.3.32V15.55l-.55.06v2.47l-1.02,19.01-7.8.4-1.02-18.41v-2.41l-.55.06v20.84l-6.3.32V10.32Z" fill="#fff"/></g></g></svg>